<svg width="8000.000000000001" height="8000.000000000001" xmlns="http://www.w3.org/2000/svg" clip-rule="evenodd">
 <defs>
  <style type="text/css">.fil2 {fill:none} .fil4 {fill:#232323} .fil0 {fill:#ED3237} .fil3 {fill:#AEA69A} .fil1 {fill:#AEA69A;fill-rule:nonzero}</style>
 </defs>
 <g>
  <title>background</title>
  <rect fill="none" id="canvas_background" height="8002" width="8002" y="-1" x="-1"/>
 </g>
 <g>
  <title>Layer 1</title>
  <g id="svg_70">
   <path stroke-width="99" id="svg_1" d="m2858.000034,2899.999972c25,-237 -19,-393 -82,-532c-98,-217 -242,-393 -242,-777c0,-779 654,-1411 1460,-1411c807,0 1460,632 1460,1411c0,555 -280,683 -350,1012c-51,241 29,514 152,722c234,395 530,539 970,567c761,50 1362,661 1362,1409c0,779 -654,1411 -1460,1411c-1059,0 -1009,-625 -1486,-1005c-57,-45 -129,-85 -236,-134c-119,-56 -238,-86 -356,-91c-152,-4 -295,16 -430,60c-705,232 -533,1136 -1755,1136c-807,0 -1460,-632 -1460,-1412c0,-735 581,-1339 1324,-1405c591,-53 1064,-329 1129,-961zm-1008,1995c-212,0 -384,172 -384,385s172,386 384,386c213,0 385,-173 385,-386s-172,-385 -385,-385zm4345,15c-213,0 -385,172 -385,385s172,386 385,386c212,0 384,-173 384,-386s-172,-385 -384,-385zm-2166,-3769c-213,0 -385,172 -385,385s172,385 385,385c212,0 385,-172 385,-385s-173,-385 -385,-385zm-1149,1751c0,3 0,7 -1,10c1,-3 1,-7 1,-10z" class="fil0"/>
   <path stroke-width="99" id="svg_2" d="m4040.000034,2941.999972c311,0 593,122 797,319c204,198 331,471 331,772s-127,574 -331,772c-204,197 -486,319 -797,319c-312,0 -594,-122 -798,-319c-204,-198 -330,-471 -330,-772s126,-574 330,-772c204,-197 486,-319 798,-319zm758,359c-194,-188 -462,-304 -758,-304c-297,0 -565,116 -759,304c-194,187 -314,446 -314,732s120,545 314,732c194,188 462,304 759,304c296,0 564,-116 758,-304c194,-187 314,-446 314,-732s-120,-545 -314,-732z" class="fil1"/>
   <ellipse stroke-width="99" id="svg_3" ry="1064" rx="1062" cy="5294.999972" cx="6185.000034" class="fil2"/>
   <ellipse stroke-width="99" id="svg_4" ry="957" rx="955" cy="5294.999972" cx="6185.000034" class="fil2"/>
   <ellipse stroke-width="99" id="svg_5" ry="569" rx="568" cy="5294.999972" cx="6185.000034" class="fil2"/>
   <circle stroke-width="99" id="svg_6" r="385" cy="5294.999972" cx="6195.000034" class="fil2"/>
   <ellipse stroke-width="99" id="svg_7" ry="1064" rx="1062" cy="5279.999972" cx="1840.000034" class="fil2"/>
   <ellipse stroke-width="99" id="svg_8" ry="957" rx="955" cy="5279.999972" cx="1840.000034" class="fil2"/>
   <ellipse stroke-width="99" id="svg_9" ry="569" rx="568" cy="5279.999972" cx="1840.000034" class="fil2"/>
   <circle stroke-width="99" id="svg_10" r="385" cy="5279.999972" cx="1850.000034" class="fil2"/>
   <ellipse stroke-width="99" id="svg_11" ry="1064" rx="1062" cy="1525.999972" cx="4019.000034" class="fil2"/>
   <ellipse stroke-width="99" id="svg_12" ry="957" rx="955" cy="1525.999972" cx="4019.000034" class="fil2"/>
   <ellipse stroke-width="99" id="svg_13" ry="569" rx="568" cy="1525.999972" cx="4019.000034" class="fil2"/>
   <circle stroke-width="99" id="svg_14" r="385" cy="1525.999972" cx="4029.000034" class="fil2"/>
   <path stroke-width="99" id="svg_15" d="m1840.000034,6343.999972c587,0 1062,-476 1062,-1064c0,-587 -475,-1063 -1062,-1063c-586,0 -1061,476 -1061,1063c0,588 475,1064 1061,1064zm956,-1064c0,529 -428,957 -956,957c-527,0 -955,-428 -955,-957c0,-528 428,-957 955,-957c528,0 956,429 956,957z" class="fil3"/>
   <path stroke-width="99" id="svg_16" d="m1840.000034,6236.999972c528,0 956,-428 956,-957c0,-528 -428,-957 -956,-957c-527,0 -955,429 -955,957c0,529 428,957 955,957zm568,-957c0,314 -254,569 -568,569c-313,0 -567,-255 -567,-569s254,-568 567,-568c314,0 568,254 568,568z" class="fil4"/>
   <path stroke-width="99" id="svg_17" d="m1840.000034,5848.999972c314,0 568,-255 568,-569s-254,-568 -568,-568c-313,0 -567,254 -567,568s254,569 567,569zm395,-569c0,213 -172,386 -385,386c-212,0 -384,-173 -384,-386s172,-385 384,-385c213,0 385,172 385,385z" class="fil3"/>
   <path stroke-width="99" id="svg_18" d="m7140.000034,5294.999972c0,529 -428,957 -955,957c-528,0 -956,-428 -956,-957c0,-528 428,-957 956,-957c527,0 955,429 955,957zm-2017,0c0,588 475,1064 1062,1064c586,0 1061,-476 1061,-1064c0,-587 -475,-1063 -1061,-1063c-587,0 -1062,476 -1062,1063z" class="fil3"/>
   <path stroke-width="99" id="svg_19" d="m6185.000034,6251.999972c527,0 955,-428 955,-957c0,-528 -428,-957 -955,-957c-528,0 -956,429 -956,957c0,529 428,957 956,957zm567,-957c0,314 -254,569 -567,569c-314,0 -568,-255 -568,-569s254,-568 568,-568c313,0 567,254 567,568z" class="fil4"/>
   <path stroke-width="99" id="svg_20" d="m6185.000034,5863.999972c313,0 567,-255 567,-569s-254,-568 -567,-568c-314,0 -568,254 -568,568s254,569 568,569zm394,-569c0,213 -172,386 -384,386c-213,0 -385,-173 -385,-386s172,-385 385,-385c212,0 384,172 384,385z" class="fil3"/>
   <path stroke-width="99" id="svg_21" d="m4019.000034,2589.999972c586,0 1062,-477 1062,-1064s-476,-1064 -1062,-1064c-587,0 -1062,477 -1062,1064s475,1064 1062,1064zm955,-1064c0,529 -427,957 -955,957s-956,-428 -956,-957s428,-957 956,-957s955,428 955,957z" class="fil3"/>
   <path stroke-width="99" id="svg_22" d="m4019.000034,2482.999972c528,0 955,-428 955,-957s-427,-957 -955,-957s-956,428 -956,957s428,957 956,957zm568,-957c0,314 -255,569 -568,569c-314,0 -568,-255 -568,-569s254,-569 568,-569c313,0 568,255 568,569z" class="fil4"/>
   <path stroke-width="99" id="svg_23" d="m4019.000034,2094.999972c313,0 568,-255 568,-569s-255,-569 -568,-569c-314,0 -568,255 -568,569s254,569 568,569zm395,-569c0,213 -173,385 -385,385c-213,0 -385,-172 -385,-385s172,-385 385,-385c212,0 385,172 385,385z" class="fil3"/>
  </g>
  <line opacity="0" stroke="#000000" stroke-linecap="null" stroke-linejoin="null" id="svg_82" y2="8000" x2="8000" y1="0" x1="0" stroke-width="99" fill="none"/>
  <line opacity="0" stroke="#000000" stroke-linecap="null" stroke-linejoin="null" id="svg_81" y2="0" x2="8000" y1="8000" x1="0" stroke-width="99" fill="none"/>
 </g>
</svg>